<svg xmlns="http://www.w3.org/2000/svg" aria-hidden="true" style="position:absolute;width:0;height:0;overflow:hidden">
  <defs>
    <symbol id="icon-client6" viewBox="0 0 30 16">
      <path d="M15.294 7.841c-.127-.169-.188-.368-.173-.569v-.825c0-.253.057-.445.172-.577s.312-.197.591-.196c.263 0 .449.056.559.168.12.143.179.317.165.494v.194h-.47v-.196c.002-.064-.003-.129-.014-.192-.007-.044-.03-.084-.067-.114-.048-.033-.109-.049-.17-.044-.064-.004-.128.013-.179.047-.041.034-.068.078-.078.126-.013.067-.02.136-.018.204v1.001c-.007.097.013.193.06.281.023.03.056.053.094.068s.08.02.121.016c.06.004.12-.012.166-.045.038-.033.063-.076.07-.122.011-.066.016-.134.015-.201v-.203h.47v.186c.013.184-.044.366-.162.519-.108.123-.292.184-.562.184s-.475-.065-.59-.201zm1.956.008c-.119-.128-.178-.316-.178-.563v-.868c0-.245.059-.431.178-.557s.317-.189.595-.188c.276 0 .474.063.592.188s.179.311.179.557v.868c0 .245-.06.433-.181.562s-.317.194-.59.194-.476-.065-.595-.193zm.815-.208c.043-.08.062-.169.056-.257V6.321c.005-.087-.014-.173-.055-.252-.024-.03-.057-.054-.096-.069s-.082-.02-.124-.015c-.042-.005-.085 0-.124.015s-.072.039-.097.069c-.043.079-.062.165-.056.252v1.068c-.006.088.013.177.056.257.027.027.061.049.099.064s.079.023.121.023.083-.008.121-.023c.038-.015.072-.037.099-.064v-.005zm1.117-1.942h.506l.38 1.601.389-1.601h.492l.05 2.312h-.364l-.039-1.607-.376 1.607h-.292l-.389-1.612-.036 1.612h-.368l.046-2.312zm2.385 0h.788c.454 0 .681.219.681.656 0 .419-.239.628-.717.628h-.268V8.01h-.486l.003-2.312zm.673.988c.048.005.097.001.143-.011s.089-.034.124-.062c.056-.078.08-.17.07-.261.003-.071-.005-.141-.023-.21-.007-.023-.019-.045-.036-.063s-.038-.035-.061-.047a.49977.49977 0 0 0-.217-.037h-.189v.691h.189zm1.497-.988h.522l.536 2.312h-.453l-.106-.533h-.466l-.109.533h-.46l.536-2.312zm.446 1.511-.182-.97-.182.97h.364zm1.045-1.511h.34l.652 1.319V5.699h.404v2.312H26.3l-.656-1.377v1.377h-.417l.001-2.312zm2.341 1.43-.542-1.427h.456l.331.917.31-.917h.446l-.535 1.427v.881h-.467v-.881zM16.045 9.021v.121h-.397v.939h-.166v-.939h-.399v-.121h.962zm1.244 1.06h-.128c-.013.001-.026-.003-.036-.01a.05336.05336 0 0 1-.021-.024l-.115-.252h-.551l-.115.252c-.003.011-.009.02-.017.029-.01.007-.023.011-.036.01h-.128l.486-1.06h.169l.492 1.056zm-.805-.393h.459l-.195-.431a.91863.91863 0 0 1-.036-.1c-.007.02-.013.039-.018.056l-.017.044-.193.431zm1.644.289c.03.001.061.001.091 0 .026-.002.052-.007.078-.013.024-.005.047-.011.07-.019.021-.008.043-.017.065-.026v-.238h-.195c-.005 0-.01 0-.014-.002s-.009-.004-.012-.007c-.003-.002-.006-.005-.007-.009s-.002-.007-.002-.011v-.081h.377v.406c-.031.019-.063.036-.097.05s-.071.027-.108.036c-.04.01-.08.017-.122.022-.047.005-.095.007-.142.007-.084.001-.167-.013-.245-.039-.073-.025-.139-.063-.195-.111-.054-.048-.097-.105-.125-.168a.52558.52558 0 0 1-.045-.22c-.001-.076.014-.151.044-.222.028-.063.071-.12.125-.168s.122-.085.195-.11c.083-.027.172-.04.261-.039.045 0 .09.003.135.009.04.006.078.015.116.027.034.011.067.025.097.042s.058.035.085.055l-.047.065c-.004.006-.009.011-.016.015s-.014.005-.022.006c-.011 0-.021-.003-.03-.008-.015-.007-.03-.015-.048-.025-.021-.011-.042-.021-.065-.029a.66102.66102 0 0 0-.09-.024c-.041-.006-.082-.01-.124-.009a.56857.56857 0 0 0-.188.029c-.054.019-.103.047-.143.084-.04.038-.071.083-.09.132-.043.115-.043.239 0 .353.021.05.054.095.097.133.04.036.088.065.142.084.062.018.127.025.193.021zm1.55-.017h.531v.121h-.694v-1.06h.166l-.004.939zm1.084.121h-.166v-1.06h.166v1.06zm.619-1.055c.01.005.019.011.025.019l.711.799c-.001-.013-.001-.025 0-.038s0-.024 0-.034v-.755h.145v1.064h-.084c-.012.001-.025-.001-.036-.006a.08603.08603 0 0 1-.026-.02l-.71-.798v.825h-.139v-1.06h.087c.009 0 .019.002.027.005zm2.106-.005v.117h-.589v.35h.478V9.6h-.478v.362h.589v.117h-.761V9.021h.761zM6.056 2.474l7.386 1.81v6.342L6.056 8.817V2.475zm-.474-.541v7.191l8.333 2.042v-7.19L5.582 1.933z"/>
      <path d="m10.048 14.505-8.334-2.044v-7.19l8.334 2.043v7.191zM5.72 2.392l7.29 1.787-3.1 2.676-7.291-1.788L5.72 2.392zm-.138-.459L1.714 5.27l8.334 2.043 3.867-3.337-8.333-2.043zM10.517 14.1l3.398-2.933-3.398-.833V14.1z"/>
    </symbol>
    <symbol id="icon-client5" viewBox="0 0 30 16">
      <path d="M7.655 12.678c.07.078.107.176.106.276.004.066-.009.131-.038.191s-.071.114-.126.158c-.136.093-.305.138-.475.128h-.836v-1.752h.819c.162-.01.322.031.454.116.053.04.095.09.122.147s.04.119.036.181c.005.097-.029.192-.095.268-.064.07-.151.118-.249.137.111.018.211.071.282.15zm-.98-.264h.35c.08.005.159-.015.222-.058.026-.021.047-.048.06-.078s.018-.062.015-.093c.002-.032-.003-.064-.016-.093s-.033-.056-.058-.078c-.066-.044-.147-.065-.229-.059h-.344v.46zm.606.671c.028-.022.05-.049.065-.08s.021-.064.018-.098c.002-.034-.004-.068-.019-.099s-.037-.059-.066-.081c-.068-.046-.153-.068-.238-.063h-.367v.482h.372c.084.004.166-.017.235-.061zm2.047.346-.455-.685h-.171v.685H8.31v-1.752h.742c.187-.012.372.042.516.149.104.095.166.22.176.353s-.033.265-.121.372c-.092.094-.216.157-.354.178l.485.7h-.426zm-.626-.923h.32c.222 0 .334-.088.334-.265.002-.036-.004-.072-.018-.106s-.036-.065-.064-.091c-.07-.053-.161-.078-.252-.071h-.324l.004.533zm2.767.571h-.781l-.138.353h-.411l.717-1.732h.444l.714 1.732h-.411l-.135-.353zm-.104-.266-.285-.74-.285.74h.57zm2.785.618h-.389l-.872-1.191v1.191h-.388v-1.752h.388l.872 1.198v-1.198h.389v1.752zm2.219-.419c-.08.132-.203.24-.352.309-.169.077-.357.115-.547.11h-.692v-1.752h.692c.189-.004.377.033.547.108.149.068.271.174.352.306.08.142.122.3.122.46s-.042.317-.122.46zm-.445-.042c.111-.116.172-.265.172-.418s-.061-.302-.172-.418c-.134-.105-.309-.159-.487-.149h-.27v1.134h.27c.178.01.353-.043.487-.149zM11.713 1.933s5.019 1.706 4.913 4.174v4.175s-5.015-1.707-4.911-4.175l-.002-4.174zm9.384 7.373c.948-.587 2.044-.951 3.189-1.058V6.941c-1.319.458-2.438 1.287-3.189 2.365z"/>
      <path d="M20.527 9.699c.776-1.406 2.121-2.492 3.758-3.033V2.9s-7.148 2.43-6.997 5.945v5.945s.319-.109.82-.312c0-.19 0-.382.023-.574.148-1.632 1.01-3.144 2.396-4.204z"/>
      <path d="M19.848 11.908c.038-.412.121-.82.25-1.217-.863.915-1.386 2.051-1.495 3.248-.01.113-.016.226-.019.342.406-.175.879-.395 1.375-.652a5.5352 5.5352 0 0 1-.111-1.721zm.284.021c-.048.521-.018 1.045.088 1.559 1.953-1.052 4.147-2.677 4.063-4.642v-.171c-1.395.141-2.701.69-3.716 1.563-.238.541-.384 1.111-.435 1.691z"/>
    </symbol>
    <symbol id="icon-client4" viewBox="0 0 30 16">
      <path d="M6.879 6.148h-.001c-.682 0-1.234.498-1.234 1.113v.001c0 .615.553 1.113 1.234 1.113h.001c.682 0 1.234-.498 1.234-1.113v-.001c0-.615-.553-1.113-1.234-1.113zm9.11-.356c-.002-.854-.379-1.672-1.048-2.275s-1.577-.944-2.523-.946c-.947.002-1.855.341-2.524.945S8.847 4.938 8.845 5.792v4.707s7.144-.717 7.145-4.706v-.001zM3.143 12.044c.002.594.264 1.163.73 1.583s1.097.657 1.756.659c.659-.002 1.29-.238 1.755-.658s.728-.989.73-1.583V8.77s-4.971.5-4.971 3.274zm2.485.587c-.129 0-.255-.034-.362-.099s-.19-.156-.24-.263-.062-.225-.037-.339c.025-.114.087-.218.178-.3s.207-.138.333-.161c.126-.023.257-.011.376.033s.221.12.292.216c.072.096.11.21.11.326 0 .077-.016.154-.049.225s-.08.136-.141.191c-.06.055-.132.098-.211.128s-.164.045-.25.045v-.002zm4.546-1.055v1.219h-.251v-1.219h.251zm.485.52v.196h-.554v-.196h.554zm.059-.52v.197h-.613v-.197h.613zm1.147.581v.058c0 .093-.013.176-.038.249s-.061.136-.106.188c-.046.051-.1.091-.164.118s-.133.041-.21.041c-.076 0-.146-.014-.21-.041s-.118-.067-.164-.118c-.046-.052-.082-.115-.108-.188s-.038-.157-.038-.249v-.058c0-.093.013-.176.038-.249s.061-.136.106-.188c.046-.052.101-.092.164-.119s.134-.041.21-.041c.077 0 .147.014.21.041s.118.067.164.119c.046.052.082.115.107.188s.039.156.039.249zm-.254.057v-.059c0-.065-.006-.122-.018-.171s-.029-.09-.052-.124-.051-.059-.084-.075c-.033-.017-.071-.026-.113-.026s-.08.009-.113.026c-.032.017-.06.042-.083.075s-.039.075-.051.124c-.012.049-.018.106-.018.171v.059c0 .064.006.121.018.171s.029.091.052.125c.023.033.051.059.084.076s.071.026.113.026c.042 0 .08-.009.113-.026s.061-.043.083-.076c.022-.034.039-.076.051-.125s.018-.107.018-.171zm1.069.262c0-.022-.003-.041-.01-.059s-.018-.034-.035-.049c-.017-.015-.042-.03-.073-.044s-.072-.03-.121-.045c-.055-.018-.108-.038-.157-.06s-.093-.048-.131-.078c-.037-.03-.067-.065-.089-.105s-.032-.086-.032-.138c0-.051.011-.097.033-.138s.054-.078.094-.107c.04-.03.088-.053.142-.069s.116-.024.182-.024c.09 0 .168.016.235.049s.119.077.156.133c.037.056.056.121.056.193h-.249c0-.036-.008-.067-.023-.094s-.037-.049-.067-.064c-.03-.016-.067-.023-.112-.023-.044 0-.08.007-.109.02s-.051.03-.065.053c-.015.022-.022.046-.022.074 0 .021.005.039.015.056s.026.032.047.047.046.028.076.041c.03.013.065.025.105.038.066.02.125.043.175.068s.093.053.127.085c.034.031.06.067.077.106s.026.085.026.135c0 .053-.01.1-.031.142s-.051.077-.09.106c-.039.029-.086.051-.14.066s-.115.023-.182.023c-.06 0-.12-.008-.178-.023s-.112-.04-.16-.073c-.047-.032-.085-.074-.114-.124s-.043-.11-.043-.178h.252c0 .038.006.07.018.096s.028.047.049.064c.022.016.047.028.077.035s.063.011.099.011c.044 0 .079-.006.107-.018s.049-.029.063-.051c.014-.022.021-.046.021-.074zm.967-.9v1.219h-.25v-1.219h.25zm.375 0v.197h-.994v-.197h.994zm.961 1.023v.196h-.649v-.196h.649zm-.567-1.023v1.219h-.251v-1.219h.251zm.482.496v.191h-.564v-.191h.564zm.084-.496v.197h-.648v-.197h.648zm.147 0h.455c.093 0 .173.014.24.042s.119.069.156.124.054.122.054.202c0 .065-.011.121-.033.168s-.053.085-.093.116-.086.055-.14.074l-.08.042h-.395l-.002-.196h.294c.044 0 .081-.008.11-.023s.051-.037.065-.065c.015-.028.023-.06.023-.097 0-.039-.007-.073-.022-.101s-.037-.05-.066-.065-.067-.023-.111-.023h-.203v1.022h-.251v-1.219zm.682 1.218-.278-.543.265-.002.281.533v.012h-.269zm1.318-.434h-.311v-.196h.311c.048 0 .087-.008.117-.023s.052-.039.066-.067c.014-.028.021-.061.021-.096s-.007-.07-.021-.101c-.014-.031-.036-.056-.066-.075s-.069-.028-.117-.028h-.224v1.022h-.251v-1.219h.475c.095 0 .177.017.245.052s.121.081.157.141c.036.06.054.129.054.207 0 .079-.018.147-.054.204s-.089.102-.157.133c-.068.031-.15.047-.245.047zm1.448.239v.196h-.649v-.196h.649zm-.567-1.023v1.219h-.251v-1.219h.251zm.483.496v.191h-.564v-.191h.564zm.083-.496v.197h-.648v-.197h.648zm.709 0v1.219h-.25v-1.219h.25zm.375 0v.197h-.994v-.197h.994zm.961 1.023v.196h-.649v-.196h.649zm-.566-1.023v1.219h-.251v-1.219h.251zm.482.496v.191h-.564v-.191h.564zm.083-.496v.197h-.648v-.197h.648zm.148 0h.455c.093 0 .173.014.24.042s.119.069.156.124c.036.055.054.122.054.202 0 .065-.011.121-.033.168s-.053.085-.093.116-.086.055-.14.074l-.08.042h-.395l-.002-.196h.294c.044 0 .081-.008.11-.023s.051-.037.065-.065c.015-.028.023-.06.023-.097 0-.039-.007-.073-.022-.101s-.037-.05-.066-.065c-.03-.015-.067-.023-.111-.023h-.203v1.022h-.251v-1.219zm.681 1.218-.278-.543.265-.002.281.533v.012h-.269zm1.051-.318c0-.022-.003-.041-.01-.059s-.018-.034-.035-.049c-.017-.015-.042-.03-.073-.044s-.072-.03-.121-.045c-.055-.018-.108-.038-.157-.06s-.093-.048-.131-.078c-.037-.03-.067-.065-.089-.105s-.032-.086-.032-.138c0-.051.011-.097.033-.138s.054-.078.094-.107c.04-.03.088-.053.142-.069s.116-.024.182-.024c.09 0 .168.016.235.049s.119.077.156.133c.037.056.056.121.056.193h-.249c0-.036-.008-.067-.023-.094s-.037-.049-.067-.064c-.03-.016-.067-.023-.112-.023-.044 0-.08.007-.109.02s-.051.03-.065.053c-.015.022-.022.046-.022.074 0 .021.005.039.015.056s.026.032.047.047.046.028.076.041c.03.013.065.025.105.038.066.02.125.043.175.068s.093.053.127.085c.034.031.06.067.077.106s.026.085.026.135c0 .053-.01.1-.031.142s-.051.077-.09.106c-.039.029-.086.051-.14.066s-.115.023-.182.023c-.06 0-.12-.008-.178-.023s-.112-.04-.16-.073c-.047-.032-.085-.074-.114-.124s-.043-.11-.043-.178h.252c0 .038.006.07.018.096s.028.047.049.064c.022.016.047.028.077.035s.063.011.099.011c.044 0 .079-.006.107-.018s.049-.029.063-.051c.014-.022.021-.046.021-.074z"/>
    </symbol>
    <symbol id="icon-client3" viewBox="0 0 30 16">
      <path d="M10.517 14.064c.005 0 .009.001.013.003s.008.004.011.007l.063.059c-.049.048-.109.086-.177.113-.08.029-.165.042-.252.04-.081.001-.162-.011-.237-.038-.068-.024-.128-.06-.178-.106-.051-.048-.09-.104-.115-.164-.028-.068-.041-.139-.04-.211-.001-.072.014-.144.043-.212.028-.061.069-.117.122-.164s.118-.083.189-.107c.078-.026.16-.039.244-.038.077-.002.154.01.226.034.062.023.12.055.17.095l-.053.063c-.004.004-.008.008-.013.011-.006.004-.014.005-.021.005s-.016-.003-.023-.007l-.028-.017-.039-.022a.48671.48671 0 0 0-.053-.021c-.023-.007-.047-.013-.072-.017-.031-.005-.062-.007-.094-.007-.06-.001-.12.009-.175.028-.052.018-.099.045-.137.08-.039.037-.07.08-.089.127-.022.054-.033.11-.032.167-.001.058.01.115.032.17.019.046.049.089.088.126.036.034.081.061.131.078.051.018.107.027.162.027.032 0 .064-.001.096-.005.052-.005.102-.021.146-.045.022-.012.043-.026.062-.042.008-.007.019-.01.03-.011zm1.822-.298c.001.071-.013.143-.043.21-.026.061-.066.116-.119.163s-.116.083-.186.107c-.154.05-.325.05-.479 0-.07-.024-.133-.061-.185-.107s-.093-.103-.12-.164c-.057-.136-.057-.284 0-.42.027-.061.068-.117.12-.165.053-.045.116-.08.185-.103.154-.051.325-.051.479 0 .07.024.133.061.186.107s.092.102.119.162c.029.067.044.139.043.211zm-.166 0a.44175.44175 0 0 0-.03-.168c-.018-.047-.046-.089-.084-.126-.037-.035-.083-.062-.133-.08-.112-.037-.236-.037-.349 0-.051.018-.096.045-.133.08-.039.036-.068.079-.085.126-.04.11-.04.227 0 .337.018.047.047.09.085.126.037.034.083.061.133.079.112.036.236.036.349 0 .051-.018.096-.044.133-.079.038-.037.067-.08.084-.126.021-.054.031-.111.03-.168zm1.409.176.017.038c.006-.013.012-.026.018-.038s.013-.025.021-.037l.403-.626c.008-.011.015-.018.023-.02.011-.003.022-.004.033-.003h.119v1.018h-.141v-.781c0-.012-.001-.023 0-.035l-.405.635c-.005.01-.013.018-.024.023s-.022.009-.035.009h-.023c-.012 0-.024-.003-.035-.008s-.019-.014-.024-.023l-.417-.639v.817h-.136v-1.016h.119c.011-.001.022.001.033.003.01.004.018.011.022.02l.412.627c.008.012.015.024.021.036zm1.516-.05v.381h-.158v-1.017h.352c.066-.001.133.006.196.022.051.012.098.034.139.063.035.028.062.062.079.1.019.041.028.086.027.13.001.045-.009.089-.029.13-.019.039-.048.074-.085.102-.04.031-.088.054-.14.067-.061.017-.126.025-.19.024l-.191-.003zm0-.109h.191c.041 0 .083-.005.122-.015.033-.009.063-.024.088-.044.024-.019.042-.042.054-.067.013-.027.019-.056.019-.086.002-.028-.004-.057-.016-.083s-.031-.05-.055-.069c-.06-.04-.136-.06-.212-.055h-.191v.419zm2.12.492h-.125c-.012 0-.025-.003-.035-.009s-.016-.014-.021-.024l-.107-.246h-.539l-.111.246c-.004.009-.011.017-.02.023-.01.007-.023.01-.035.01H16.1l.473-1.018h.164l.48 1.018zm-.78-.378h.445l-.188-.414c-.014-.031-.026-.063-.035-.096l-.018.053c-.006.016-.012.031-.017.043l-.186.414zm1.462-.636c.009.004.018.011.024.018l.69.768v-.791h.141v1.018h-.079c-.011 0-.022-.002-.032-.006s-.018-.011-.025-.019l-.689-.767c.001.012.001.023 0 .035s0 .022 0 .031v.726h-.141v-1.018h.084c.01 0 .019.001.028.005zm2.017.609v.404h-.158v-.404l-.436-.613h.141c.012-.001.024.002.034.009.009.007.016.014.021.023l.273.396c.011.017.02.032.028.047s.014.029.02.043l.021-.044c.008-.016.017-.032.027-.047l.269-.398c.006-.008.013-.015.021-.022.009-.007.022-.011.034-.01h.143l-.437.616zm-6.413-2.322c.069.007.138.013.208.019 1.064-.407 1.964-1.072 2.588-1.914s.943-1.821.919-2.817l-1.173-1.002c.238 1.06.127 2.156-.322 3.165s-1.218 1.892-2.221 2.549z"/>
      <path d="m13.085 11.501.032.005c1.071-.655 1.888-1.569 2.345-2.625s.532-2.204.217-3.297l-1.67-1.427c.676 1.173.948 2.486.784 3.786s-.755 2.534-1.707 3.557zm5.665-3.489c-.284 1.094-.973 2.081-1.965 2.814-.29.215-.602.407-.934.573.808-.203 1.551-.562 2.171-1.049s1.101-1.089 1.406-1.76l-.677-.578z"/>
      <path d="m18.484 7.851-.965-.824c-.018.94-.331 1.858-.905 2.659s-1.389 1.457-2.36 1.898h.005c.216 0 .433-.011.647-.033.908-.316 1.709-.82 2.334-1.466s1.052-1.413 1.245-2.234zm-5.259-4.295-1.151-.984c-1.029.34-1.913.937-2.538 1.713s-.961 1.696-.964 2.638c.004 1.041.414 2.051 1.166 2.871s1.801 1.402 2.984 1.654c1.055-1.099 1.673-2.456 1.764-3.875s-.351-2.826-1.26-4.016zm7.918 4.143c-.004-1.235-.58-2.419-1.603-3.292s-2.408-1.366-3.853-1.369c-.668-.001-1.33.105-1.954.311l7.045 6.019c.241-.532.365-1.098.364-1.668z"/>
    </symbol>
    <symbol id="icon-client2" viewBox="0 0 30 16">
      <path d="M14.318 1.696h-.039c-.06-.004-.12-.005-.18-.007h-.13c-.113 0-.229.003-.344.009a.11304.11304 0 0 0-.026 0c-1.041.059-2.061.319-3.005.766l-.124.06V8.85l.289-.098c.254-.087.524-.166.804-.238.756-.194 1.533-.297 2.313-.307v.831c-.103.001-.204.004-.304.009h-.024c-.601.033-1.197.124-1.779.273-.738.185-1.451.462-2.12.826V2.033c.695-.405 1.444-.71 2.224-.905.685-.177 1.389-.268 2.096-.27h.122c.146.004.288.01.422.02.352.025.702.08 1.044.166v.818c-.333-.078-.671-.129-1.012-.153-.007-.001-.014-.001-.021-.002-.071-.006-.141-.012-.207-.012zm1.44.836c.181.014.369.02.559.02.743-.003 1.484-.098 2.204-.283.738-.186 1.45-.463 2.119-.827v7.969c-.696.405-1.445.71-2.225.905-.685.176-1.389.267-2.096.27-.536.004-1.07-.059-1.59-.187v-8.02c.123.028.249.054.378.076.211.036.434.062.651.078zm4.055.062-.289.097c-.266.089-.534.169-.804.24-.785.202-1.592.305-2.402.308-.189 0-.362-.005-.53-.016l-.231-.015v6.508l.198.017c.184.016.373.024.564.024.638-.003 1.273-.085 1.892-.245.509-.128 1.004-.306 1.478-.531l.124-.06V2.593zm-9.602 10.324c-.042-.043-.092-.077-.147-.099s-.115-.033-.175-.031a.47315.47315 0 0 0-.186.035c-.054.022-.103.054-.145.095s-.073.091-.093.145a.4585.4585 0 0 0-.033.179v1.084c-.003.076.012.152.043.222.026.056.063.105.108.145.043.036.094.063.149.077.053.015.107.022.162.023.06.001.12-.012.175-.038.054-.024.103-.058.145-.1.04-.042.072-.091.095-.145s.035-.113.035-.173v-.121h-.283v.097c.001.033-.005.066-.017.097a.1685.1685 0 0 1-.041.061c-.018.014-.038.025-.059.031-.019.006-.039.01-.059.01-.025.003-.051-.001-.074-.011s-.044-.026-.059-.047a.2567.2567 0 0 1-.038-.145v-1.011c-.002-.056.01-.112.035-.162.015-.023.036-.041.06-.053s.052-.016.079-.013c.024-.001.049.004.071.015s.041.026.056.046c.032.042.048.093.047.145v.094h.28v-.11c.001-.065-.011-.129-.035-.19-.021-.057-.053-.109-.095-.153zm1.683-.013c-.09-.076-.204-.118-.322-.119-.058 0-.115.011-.169.031s-.106.05-.15.089c-.047.042-.084.094-.11.152-.029.066-.043.138-.041.21v1.04c-.002.073.012.146.041.213.026.056.063.105.11.145.043.04.094.071.15.092.054.02.111.03.169.031s.115-.01.169-.031c.056-.021.108-.052.153-.092s.082-.09.107-.145c.029-.067.043-.14.041-.213v-1.04a.52089.52089 0 0 0-.041-.21c-.025-.057-.062-.109-.107-.152zm-.132 1.402c.002.028-.001.056-.011.082s-.025.05-.045.069c-.037.031-.085.049-.133.049s-.096-.017-.133-.049c-.02-.019-.035-.043-.045-.069s-.014-.054-.011-.082v-1.04c-.002-.028.001-.056.011-.082s.025-.05.045-.069c.037-.031.085-.049.133-.049s.096.017.133.049c.02.019.035.043.045.069s.014.054.011.082v1.04zm2.343.464v-1.968h-.272l-.358 1.042h-.005l-.361-1.042h-.27v1.968h.281v-1.197h.005l.275.846h.14l.278-.846h.005v1.197h.281zm1.597-1.83c-.043-.049-.098-.086-.159-.108-.066-.021-.135-.032-.204-.031h-.418v1.968h.28v-.769h.145c.088.004.175-.015.253-.054.064-.035.117-.087.154-.15a.4791.4791 0 0 0 .064-.171c.011-.074.016-.149.015-.224.003-.095-.006-.189-.027-.281-.019-.068-.054-.13-.103-.181zm-.144.6c-.001.036-.01.071-.026.102-.016.03-.041.054-.072.069-.042.019-.087.027-.132.025H15.2v-.669h.145c.044-.002.087.006.126.025.029.017.052.042.066.073.015.035.024.072.025.11v.131c0 .046.003.093 0 .135h-.003zm1.473-.738h-.23l-.434 1.968h.28l.082-.423h.382l.082.423h.28l-.445-1.968zm-.259 1.277.138-.713h.005l.137.713h-.28zm2.071-.091h-.005l-.424-1.186h-.27v1.968h.28v-1.184h.006l.429 1.184h.264v-1.968h-.28v1.186zm1.713-1.186-.226.782h-.006l-.226-.782h-.297l.385 1.136v.832h.28v-.832l.385-1.136h-.297zM9.429 15.327h.135v.379h.092v-.379h.134v-.078h-.361v.078zm1.136-.078-.177.457h.098l.038-.104h.182l.039.104h.1l-.181-.457h-.098zm-.015.276.062-.169.062.169h-.124zm1.138.013h.106v.059c-.031.025-.069.038-.108.039-.018.001-.037-.002-.054-.01s-.032-.019-.043-.034a.19469.19469 0 0 1-.034-.119c0-.102.044-.153.132-.153.023-.002.046.004.065.017s.033.033.038.056l.09-.017c-.02-.089-.084-.134-.194-.134-.059-.002-.116.019-.16.059-.023.023-.041.05-.052.081s-.016.063-.014.095c-.003.063.018.124.059.171.022.023.049.041.079.053s.062.016.094.014c.072.002.141-.024.194-.073v-.18h-.198v.077zm1.147-.289h-.093v.457h.32v-.078h-.228v-.379zm.97 0h-.093v.457h.093v-.457zm.948.305-.187-.305h-.09v.457h.086v-.299l.184.299h.092v-.457h-.085v.305zm.858-.049h.228v-.078h-.228v-.1h.245v-.078h-.338v.457h.347v-.078h-.254v-.124zm2.078-.076h-.18v-.18h-.092v.457h.092v-.2h.18v.2h.092v-.457h-.092v.18zm.862.076h.228v-.078h-.228v-.1h.246v-.078h-.338v.457h.346v-.078h-.254v-.124zm1.17 0c.079-.012.12-.054.12-.127a.1125.1125 0 0 0-.045-.102c-.041-.021-.088-.03-.134-.027h-.194v.457h.092v-.191h.018c.02-.001.039.002.057.01.013.008.025.02.033.033l.1.145h.11l-.056-.089c-.025-.044-.059-.082-.101-.11zm-.093-.063h-.068v-.115h.072c.031-.003.063.001.093.011.007.006.012.013.015.021s.005.017.005.026c0 .009-.003.018-.007.026s-.01.015-.017.02c-.03.009-.062.013-.093.011zm.975.063h.228v-.078h-.228v-.1h.246v-.078h-.338v.457h.347v-.078h-.254v-.124z"/>
    </symbol>
    <symbol id="icon-client1" viewBox="0 0 30 16">
      <path d="m10.857 2 2.002 1.908-3.717-.002v9.255h9.714V9.622l2 1.905V2h-10zm7.912 7.398-5.677-5.409h5.677v5.409zm-1.762 2.408H10.68V5.582h.447v5.803h5.879v.421zm-5.065 3.069-.236-.485h-.195l.342.642v.374h.176v-.374l.342-.642h-.194l-.236.485zm.869-.485h.042l.384 1.016h-.184l-.082-.238h-.393l-.082.238h-.183l.382-1.016h.117zm-.186.639h.297l-.149-.431-.149.431zm1.227-.169c-.008-.01-.015-.019-.022-.028-.026-.034-.046-.068-.061-.1s-.022-.066-.022-.1c0-.053.011-.099.033-.137s.053-.067.093-.088c.04-.021.087-.031.14-.031.052 0 .096.01.133.031s.066.048.086.082c.02.034.031.071.031.112 0 .032-.006.061-.017.088s-.028.051-.048.073-.044.043-.071.062l-.071.051.201.237c.007-.013.013-.027.018-.041.017-.045.026-.094.026-.149h.145c0 .049-.005.096-.015.14s-.024.085-.045.123c-.008.016-.018.031-.029.045l.149.176h-.195l-.059-.069c-.032.024-.067.043-.104.057-.049.018-.102.027-.158.027-.067 0-.126-.012-.175-.037s-.087-.059-.114-.102c-.027-.043-.04-.093-.04-.149 0-.041.009-.078.026-.109s.041-.061.07-.088c.027-.025.059-.05.094-.075zm.083.103-.021.015c-.025.02-.043.039-.055.058s-.019.035-.023.05-.006.029-.006.04c0 .03.006.057.019.081s.032.043.057.058c.025.014.056.021.091.021.039 0 .076-.009.112-.026.018-.009.035-.02.052-.032l-.226-.266zm.041-.186.062-.042c.029-.02.05-.039.063-.057s.019-.043.019-.071c0-.024-.009-.046-.028-.067s-.045-.031-.079-.031c-.024 0-.044.006-.06.017s-.029.025-.037.043c-.008.018-.012.037-.012.059s.005.043.016.065c.011.022.025.045.044.069l.012.015zm1.776.298h-.174c-.005.044-.016.082-.032.112s-.039.053-.07.069c-.031.016-.071.024-.121.024-.041 0-.076-.008-.105-.024s-.053-.039-.073-.069c-.019-.03-.033-.065-.042-.107s-.013-.088-.013-.14v-.086c0-.054.005-.102.015-.144s.025-.078.045-.107c.02-.029.045-.051.075-.066s.065-.022.105-.022c.049 0 .088.008.119.025s.053.04.068.071c.016.031.026.069.031.112h.174c-.007-.068-.026-.128-.057-.181s-.074-.094-.13-.123c-.056-.03-.124-.045-.205-.045-.064 0-.121.011-.172.033s-.094.055-.13.097c-.036.042-.064.092-.084.151s-.029.125-.029.198v.084c0 .073.009.139.028.198s.047.11.082.151c.036.041.079.073.129.096s.107.033.17.033c.082 0 .151-.015.209-.045s.102-.07.133-.122c.032-.052.05-.111.056-.178zm.969-.149v-.056c0-.077-.01-.145-.031-.206s-.049-.113-.086-.156c-.037-.043-.082-.076-.133-.098s-.109-.034-.172-.034c-.062 0-.119.011-.171.034s-.096.055-.133.098c-.037.043-.066.095-.087.156s-.031.129-.031.206v.056c0 .077.01.146.031.206s.05.113.088.156c.038.043.082.076.133.098s.109.033.171.033c.063 0 .12-.011.172-.033s.096-.056.133-.098c.037-.043.066-.095.086-.156s.03-.13.03-.206zm-.175-.058v.057c0 .057-.006.107-.017.151s-.026.081-.047.111-.046.052-.077.068-.065.022-.104.022c-.039 0-.073-.007-.103-.022s-.056-.038-.078-.068c-.021-.03-.038-.067-.049-.111s-.017-.094-.017-.151v-.057c0-.057.006-.107.017-.15s.027-.08.048-.11.047-.052.077-.067.065-.023.103-.023.073.008.104.023.056.037.077.067.037.066.048.11c.011.043.017.093.017.15z"/>
    </symbol>
    <symbol id="icon-linkedin" viewBox="0 0 16 16">
      <path d="M15.996 16v-.001H16v-5.868c0-2.871-.618-5.082-3.974-5.082-1.613 0-2.696.885-3.138 1.725h-.047V5.317H5.659v10.682h3.313V10.71c0-1.393.264-2.739 1.989-2.739 1.699 0 1.725 1.589 1.725 2.829v5.201h3.31zM.264 5.318h3.317V16H.264V5.318zM1.921 0C.86 0 0 .861 0 1.921S.861 3.86 1.921 3.86c1.061 0 1.921-.879 1.921-1.939S2.981 0 1.921 0z"/>
    </symbol>
    <symbol id="icon-facebook" viewBox="0 0 16 16">
      <path d="M10.665 2.657h1.461V.113C11.874.078 11.007 0 9.998 0 7.892 0 6.449 1.325 6.449 3.759V6H4.125v2.844h2.324V16h2.849V8.845h2.23l.354-2.844H9.297V4.042c.001-.822.222-1.385 1.367-1.385z"/>
    </symbol>
    <symbol id="icon-twitter" viewBox="0 0 16 16">
      <path d="M16 3.039c-.595.261-1.229.434-1.89.518.68-.406 1.199-1.044 1.443-1.813-.634.378-1.334.645-2.08.794-.602-.641-1.46-1.038-2.396-1.038-1.816 0-3.278 1.474-3.278 3.281 0 .26.022.51.076.748-2.727-.133-5.14-1.44-6.761-3.431-.283.491-.449 1.053-.449 1.658 0 1.136.585 2.143 1.457 2.726-.527-.01-1.044-.163-1.482-.404v.036c0 1.594 1.137 2.918 2.628 3.223-.267.073-.558.108-.86.108-.21 0-.422-.012-.621-.056.425 1.299 1.631 2.254 3.065 2.285-1.116.873-2.533 1.399-4.067 1.399-.269 0-.527-.012-.785-.045 1.453.937 3.175 1.472 5.032 1.472 6.036 0 9.336-5 9.336-9.334 0-.145-.005-.285-.012-.424.651-.462 1.198-1.039 1.644-1.703z"/>
    </symbol>
    <symbol id="icon-instagram" viewBox="0 0 16 16">
      <path d="M15.984 4.704c-.037-.85-.175-1.435-.372-1.941-.203-.538-.516-1.019-.925-1.419-.4-.406-.885-.722-1.416-.922C12.762.225 12.18.088 11.33.05 10.473.009 10.202 0 8.029 0S5.585.009 4.731.047c-.85.037-1.435.175-1.941.372-.538.203-1.019.516-1.419.925-.406.4-.722.885-.922 1.416-.197.51-.334 1.091-.372 1.941-.041.856-.05 1.128-.05 3.301s.009 2.444.047 3.298c.037.85.175 1.435.372 1.941.203.538.519 1.019.925 1.419.4.406.885.722 1.416.922.51.197 1.091.335 1.941.372.853.038 1.125.047 3.298.047s2.444-.009 3.298-.047c.85-.037 1.435-.175 1.941-.372 1.075-.416 1.925-1.266 2.341-2.341.197-.509.334-1.091.372-1.941.038-.853.047-1.125.047-3.298s-.003-2.444-.041-3.298zm-1.441 6.532c-.034.781-.166 1.203-.275 1.485-.269.697-.822 1.25-1.519 1.519-.281.109-.706.241-1.485.275-.844.038-1.097.047-3.232.047s-2.391-.009-3.232-.047c-.781-.034-1.203-.166-1.485-.275-.347-.128-.663-.331-.919-.597-.266-.259-.469-.572-.597-.919-.109-.281-.241-.706-.275-1.485-.038-.844-.047-1.097-.047-3.232s.009-2.391.047-3.232c.034-.781.166-1.203.275-1.485.128-.347.331-.663.6-.919.259-.266.572-.469.919-.597.281-.109.706-.241 1.485-.275.844-.037 1.097-.047 3.232-.047 2.138 0 2.391.009 3.232.047.781.034 1.203.166 1.485.275.347.128.663.331.919.597.266.259.469.572.597.919.109.281.241.706.275 1.485.037.844.047 1.097.047 3.232s-.009 2.385-.047 3.229z"/>
      <path d="M8.03 3.891c-2.269 0-4.11 1.841-4.11 4.11s1.841 4.11 4.11 4.11 4.11-1.841 4.11-4.11-1.841-4.11-4.11-4.11zm0 6.777c-1.472 0-2.666-1.194-2.666-2.666S6.558 5.336 8.03 5.336s2.666 1.194 2.666 2.666-1.194 2.666-2.666 2.666zm5.232-6.939c0 .53-.43.96-.96.96s-.96-.43-.96-.96.43-.96.96-.96.96.43.96.96z"/>
    </symbol>
    <symbol id="icon-antenna" viewBox="0 0 16 16">
      <path fill="#2e2f42" d="m15.387 11.049-4.222-4.253.469-2.308c.121.047.249.072.379.073h.003c.596.007 1.085-.471 1.092-1.067s-.47-1.085-1.067-1.092c-.596-.007-1.085.47-1.092 1.067-.002.128.02.254.062.375l-2.48.303L4.486.081c-.05-.051-.117-.079-.188-.08s-.137.028-.187.078l-.756.752c-.104.104-.104.273 0 .377l.407.413C2.185 4.52 2.698 8.11 5.022 10.452c.021.02.046.037.073.049-.017.09-.026.182-.026.274v3.093h-3.2c-.736.001-1.332.597-1.333 1.333v.533c0 .147.119.267.267.267H13.07c.147 0 .267-.119.267-.267v-.533c-.001-.736-.597-1.332-1.333-1.333h-3.2v-1.371c.501.105 1.012.159 1.524.16 1.229-.001 2.439-.308 3.52-.892l.409.411c.05.051.117.079.188.08s.137-.028.187-.078l.756-.752c.104-.104.104-.273 0-.377zM11.64 3.117c.209-.208.547-.207.754.002s.207.547-.002.754c-.1.099-.235.155-.376.155h-.002c-.295-.002-.532-.242-.531-.536.001-.141.057-.276.157-.375h-.001zm-.628 1.752-.299 1.473-.588-.591.887-.882zm-.303-.451-.96.954-.743-.747 1.703-.208zm1.293 9.982c.442 0 .8.358.8.8v.267H1.069V15.2c0-.442.358-.8.8-.8h10.133zm-3.733-1.067v.533H5.602v-.533h2.667zM5.602 12.8v-2.027c0-.647.598-1.173 1.333-1.173s1.333.526 1.333 1.173V12.8H5.601zm3.2-.848v-1.179c0-.941-.837-1.707-1.867-1.707-.666-.01-1.288.329-1.641.893-2.029-2.137-2.486-5.323-1.139-7.944l9.301 9.354c-1.436.731-3.083.936-4.654.582zm5.645-.342L3.918 1.02l.377-.376 3.967 3.99c.002 0 .003.003.005.005l6.557 6.596-.378.376z" style="fill:var(--color1, #2e2f42)"/>
      <path fill="#4d5ae5" d="M6.938 10.133h-.002c-.442-.001-.801.357-.801.799s.357.801.799.801h.002c.442.001.801-.357.801-.799s-.357-.801-.799-.801zm.186.989c-.05.05-.118.078-.189.078-.147-.001-.266-.121-.265-.268 0-.07.029-.138.079-.188s.117-.077.187-.078c.147.001.266.121.265.268 0 .07-.029.138-.079.188h.002z" style="fill:var(--color2, #4d5ae5)"/>
    </symbol>
    <symbol id="icon-astronaut" viewBox="0 0 16 16">
      <path fill="#4d5ae5" d="M15.987 2.262c-.031-.096-.115-.167-.215-.181l-.955-.139-.427-.866c-.09-.182-.389-.182-.478 0l-.427.866-.955.139c-.101.015-.184.085-.215.181s-.005.203.067.273l.691.674-.163.951c-.017.1.024.201.106.261.083.06.191.068.281.02l.854-.449.854.449c.039.021.082.031.124.031.055 0 .11-.017.157-.051.082-.06.123-.161.106-.261l-.163-.951.691-.674c.072-.071.099-.177.067-.273zm-1.231.663c-.063.061-.091.15-.077.236l.095.557-.5-.263c-.039-.021-.082-.031-.124-.031s-.085.01-.124.031l-.5.263.095-.557c.015-.086-.014-.175-.077-.236l-.405-.395.559-.081c.087-.013.162-.067.201-.146l.25-.507.25.507c.039.079.114.133.201.146l.559.081-.405.395zm-1.689 7.336h-.533v.533h.533v-.533zm0 1.067h-.533v.533h.533v-.533zm.533-.534h-.533v.533h.533v-.533zm-1.067 0H12v.533h.533v-.533zm-1.333 2.4h-.533v.533h.533v-.533zm0 1.067h-.533v.533h.533v-.533zm.533-.533H11.2v.533h.533v-.533zm-1.066 0h-.533v.533h.533v-.533zM8 12.128h-.533v.533H8v-.533zm0 1.066h-.533v.533H8v-.533zm.533-.533H8v.533h.533v-.533zm-1.066 0h-.533v.533h.533v-.533zm-4.534-9.6H2.4v.533h.533v-.533zm0 1.067H2.4v.533h.533v-.533zm.534-.534h-.533v.533h.533v-.533zm-1.067 0h-.533v.533H2.4v-.533z" style="fill:var(--color2, #4d5ae5)"/>
      <path fill="#2e2f42" d="M12.357 7.08c-.144-.194-.355-.319-.594-.352-.241-.034-.478.029-.67.176l-.626.48-.949.709-.679-.27c1.211-.543 2.057-1.754 2.057-3.16 0-1.912-1.561-3.467-3.481-3.467S3.934 2.751 3.934 4.663c0 .693.207 1.337.56 1.879L3.112 6.53H3.11c-.004 0-.008.002-.012.002-.026.001-.052.006-.078.015-.006.002-.013.004-.019.007a.1259.1259 0 0 1-.01.003l-1.617.798h-.001l-.947.455c-.01.005-.021.011-.031.018-.377.251-.506.745-.299 1.148.11.214.298.372.528.445.089.028.179.041.27.041.145 0 .288-.035.42-.106l.694-.369 1.132-.585.678-.004-2.721 2.708s-.001 0-.001.001l-.669.667c-.158.157-.245.366-.245.589s.087.432.245.589c.162.162.376.243.59.243s.427-.081.59-.243l.657-.654.87-.65.45.449-.881.877s-.001 0-.001.001l-.669.667c-.158.157-.245.366-.245.589s.087.432.245.589c.162.162.376.243.59.243s.427-.081.59-.243l1.741-1.733s0-.001.001-.001l.505-.5-.002-.002c.003-.003.008-.004.011-.008l2.583-2.829 1.736.247c.013.002.025.003.038.003.032 0 .063-.008.094-.019.009-.003.017-.007.025-.012.01-.005.02-.007.029-.014l1.607-1.067c.006-.004.009-.01.015-.015s.014-.007.02-.013l.636-.595c.331-.31.376-.818.106-1.181zM1.065 8.885c-.087.046-.185.056-.279.026s-.169-.093-.213-.179c-.081-.157-.034-.348.107-.451l.657-.316.225.656-.496.264zm1.749-.914-.774.4-.219-.642 1.013-.5-.02.742zm7.549-3.31c0 .459-.11.892-.299 1.28l-2.091-.95c-.022-.287-.171-.538-.394-.694l.732-2.43c1.189.378 2.052 1.487 2.052 2.794zm-5.894 0c0-1.617 1.322-2.933 2.947-2.933.126 0 .25.011.373.026l-.716 2.377c-.01 0-.019-.003-.029-.003-.516 0-.936.419-.936.933s.42.933.936.933c.347 0 .647-.192.809-.472l1.931.877c-.537.723-1.397 1.195-2.368 1.195-1.625 0-2.947-1.316-2.947-2.933zm2.978.4c0 .221-.181.4-.403.4s-.403-.179-.403-.4c0-.221.181-.4.403-.4s.403.179.403.4zm-6.215 7.512c-.118.117-.309.117-.427 0-.057-.057-.088-.132-.088-.211s.031-.154.088-.211l.481-.479.426.424-.479.477zm1.607 1.867c-.118.117-.31.117-.427 0-.057-.057-.088-.132-.088-.211s.031-.154.088-.211l.481-.479.426.424-.48.478zm1.741-1.735s-.001 0-.001.001l-.882.88-.426-.424.882-.878s.001 0 .001-.001c.02-.02.033-.044.045-.068.003-.007.01-.013.013-.02.008-.021.01-.043.013-.064.002-.012.007-.024.007-.036 0-.018-.006-.035-.01-.053-.003-.016-.003-.032-.009-.048-.01-.025-.027-.047-.046-.069-.005-.006-.007-.013-.013-.019s0-.001-.001-.001l-.804-.8c-.009-.009-.019-.012-.029-.019-.014-.011-.028-.021-.043-.029s-.031-.012-.047-.016c-.017-.005-.034-.009-.051-.01-.016-.001-.031.001-.048.002-.018.002-.035.005-.052.01s-.032.014-.047.022c-.01.006-.021.007-.03.014l-.887.662-.45-.449 1.2-1.193 2.18 2.144-.464.459zm3.41-3.508c-.008-.001-.015.002-.023.001-.019-.001-.038 0-.058.003-.015.003-.03.006-.044.011-.017.006-.033.014-.048.023s-.029.019-.042.031c-.006.006-.014.008-.02.015l-2.349 2.573-2.164-2.128 1.417-1.409c.104-.104.105-.273.001-.377-.053-.053-.122-.078-.191-.078l-1.109.007.014-.804 1.552.013c.633.647 1.515 1.05 2.491 1.05.219 0 .432-.023.64-.061.02.016.04.032.065.042l1.205.48.076.379.089.443-1.501-.214zm2.02.089-.157-.779.723-.54.473.628-1.04.691zm1.877-1.415-.419.393-.466-.618.416-.319c.078-.06.175-.084.271-.071.097.014.182.064.24.142.108.146.09.349-.043.474z" style="fill:var(--color1, #2e2f42)"/>
      <path fill="#2e2f42" d="M6.801 9.272 5.73 8.205c-.104-.104-.272-.104-.376 0L4.283 9.272c-.05.05-.078.118-.078.189s.028.139.078.189l1.071 1.067c.052.052.12.078.188.078s.136-.026.188-.078L6.801 9.65c.05-.05.079-.118.079-.189s-.028-.139-.079-.189zm-1.259.88-.693-.69.693-.69.694.69-.694.69zm3.04-7.617-.129.518c.035.009.869.226.869 1.074h.533c0-1.009-.833-1.483-1.273-1.592zm1.273 2.126h-.533v.533h.533v-.533z" style="fill:var(--color1, #2e2f42)"/>
    </symbol>
    <symbol id="icon-diagram" viewBox="0 0 16 16">
      <path fill="#4d5ae5" d="M7.463 7.482h.533v2.399h-.533V7.482zm2.132 1.066h.533v1.333h-.533V8.548zm-4.264.8h.533v.533h-.533v-.533zm-1.6-.267h.533v.8h-.533v-.8z" style="fill:var(--color2, #4d5ae5)"/>
      <path fill="#2e2f42" d="M.8 14.145h12.793c.442 0 .8-.358.8-.8v-1.066c0-.442-.358-.8-.8-.8h-.267V4.832l1.514-1.434c.351.173.777.068 1.007-.249s.198-.754-.076-1.034-.71-.322-1.032-.099c-.322.223-.437.646-.271 1.001l-1.141 1.081v-.615c0-.442-.358-.8-.8-.8H1.866c-.442 0-.8.358-.8.8v7.996H.799c-.442 0-.8.358-.8.8v1.066c0 .442.358.8.8.8zM15.192 2.418c.147 0 .267.119.267.267s-.119.267-.267.267c-.147 0-.267-.119-.267-.267s.119-.267.267-.267zM1.599 3.484c0-.147.119-.267.267-.267h10.661c.147 0 .267.119.267.267v1.119l-.533.507V4.017c0-.147-.119-.267-.267-.267H2.399c-.147 0-.267.119-.267.267v6.663c0 .147.119.267.267.267h9.595c.147 0 .267-.119.267-.267V5.843l.533-.505v6.142H1.6V3.484zm2.399 3.465c-.361-.001-.677.239-.773.587s.053.716.363.9c.31.184.705.138.964-.113l.926.465c.108.054.238.029.318-.061l1.969-2.216 1.936 1.451c.104.078.249.07.343-.02l1.683-1.594v4.066H2.665v-6.13h9.062v1.33L9.841 7.4 7.889 5.936c-.111-.083-.267-.067-.359.036L5.534 8.218l-.746-.373c.005-.032.009-.064.01-.097 0-.442-.358-.8-.8-.8zm.266.8c0 .147-.119.267-.267.267s-.267-.119-.267-.267c0-.147.119-.267.267-.267s.267.119.267.267zm1.6 4.264h2.665v.267c0 .147-.119.267-.267.267H6.13c-.147 0-.267-.119-.267-.267v-.267zm-5.331.267c0-.147.119-.267.267-.267h4.531v.267c0 .442.358.8.8.8h2.132c.442 0 .8-.358.8-.8v-.267h4.531c.147 0 .267.119.267.267v1.066c0 .147-.119.267-.267.267H.801c-.147 0-.267-.119-.267-.267V12.28z" style="fill:var(--color1, #2e2f42)"/>
    </symbol>
    <symbol id="icon-clock" viewBox="0 0 16 16">
      <path fill="#2e2f42" d="M15.648 7.651C15.647 3.425 12.22 0 7.994 0S.343 3.428.343 7.654c.001 3.329 2.153 6.276 5.325 7.288.03.01.062.014.093.014.06 0 .119-.016.171-.047.067-.04.118-.103.142-.178l1.932-6.125c.528-.003.954-.433.952-.961s-.433-.954-.961-.952c-.142.001-.282.033-.41.096L5.034 4.236c-.127-.122-.329-.119-.451.008-.119.124-.119.319 0 .443l2.552 2.555c-.196.4-.084.882.268 1.155l-1.841 5.836C1.923 12.893.06 8.856 1.4 5.217s5.377-5.502 9.016-4.162c3.639 1.34 5.502 5.377 4.162 9.016-.655 1.778-2 3.216-3.731 3.987l-.199-.937c-.036-.172-.206-.282-.378-.246-.054.012-.105.037-.146.074l-1.918 1.713c-.132.117-.143.319-.026.45.038.043.087.074.142.092l2.449.782c.168.054.347-.038.401-.206.017-.053.02-.109.008-.164l-.196-.92c2.832-1.194 4.671-3.971 4.664-7.045zm-7.652-.319c.176 0 .319.143.319.319s-.143.319-.319.319c-.176 0-.319-.143-.319-.319s.143-.319.319-.319zm1.05 7.432 1.092-.974.301 1.42-1.393-.446z" style="fill:var(--color1, #2e2f42)"/>
      <path fill="#4d5ae5" d="M7.677 1.593v.638c0 .176.143.319.319.319s.319-.143.319-.319v-.638c0-.176-.143-.319-.319-.319s-.319.143-.319.319zM1.938 7.332c-.176 0-.319.143-.319.319s.143.319.319.319h.638c.176 0 .319-.143.319-.319s-.143-.319-.319-.319h-.638zm12.116.637c.176 0 .319-.143.319-.319s-.143-.319-.319-.319h-.638c-.176 0-.319.143-.319.319s.143.319.319.319h.638z" style="fill:var(--color2, #4d5ae5)"/>
    </symbol>
    <symbol id="icon-close" viewBox="0 0 8 8">
     <path d="M8 0.806l-0.806-0.806-3.194 3.194-3.194-3.194-0.806 0.806 3.194 3.194-3.194 3.194 0.806 0.806 3.194-3.194 3.194 3.194 0.806-0.806-3.194-3.194 3.194-3.194z"></path>
    </symbol>
    <symbol id="icon-name" viewBox="0 0 8 8">
     <path d="M4 4c1.105 0 2-0.895 2-2s-0.895-2-2-2-2 0.895-2 2 0.895 2 2 2zM4 5c-1.335 0-4 0.67-4 2v0.5c0 0.275 0.225 0.5 0.5 0.5h7c0.275 0 0.5-0.225 0.5-0.5v-0.5c0-1.33-2.665-2-4-2z"></path>
    </symbol>
    <symbol id="icon-phone" viewBox="0 0 8 8">
     <path d="M7.216 5.455l-1.131-0.129c-0.272-0.031-0.539 0.062-0.73 0.254l-0.819 0.819c-1.26-0.641-2.294-1.67-2.935-2.935l0.824-0.824c0.191-0.192 0.285-0.459 0.254-0.73l-0.129-1.122c-0.053-0.45-0.432-0.788-0.886-0.788h-0.77c-0.503 0-0.922 0.419-0.891 0.922 0.236 3.803 3.278 6.84 7.076 7.076 0.503 0.031 0.922-0.387 0.922-0.891v-0.77c0.004-0.45-0.334-0.828-0.784-0.882z"></path>
    </symbol>
    <symbol id="icon-mail" viewBox="0 0 11 8">
     <path d="M9.333 0h-8c-0.55 0-0.995 0.45-0.995 1l-0.005 6c0 0.55 0.45 1 1 1h8c0.55 0 1-0.45 1-1v-6c0-0.55-0.45-1-1-1zM9.133 2.125l-3.535 2.21c-0.16 0.1-0.37 0.1-0.53 0l-3.535-2.21c-0.125-0.080-0.2-0.215-0.2-0.36 0-0.335 0.365-0.535 0.65-0.36l3.35 2.095 3.35-2.095c0.285-0.175 0.65 0.025 0.65 0.36 0 0.145-0.075 0.28-0.2 0.36z"></path>
    </symbol>
    <symbol id="icon-tick" viewBox="0 0 10 8">
     <path d="M8.446 0.255c0.173-0.165 0.403-0.257 0.641-0.255s0.467 0.097 0.637 0.265c0.17 0.168 0.269 0.396 0.275 0.636s-0.080 0.473-0.242 0.649l-4.895 6.154c-0.083 0.089-0.182 0.162-0.293 0.213l-0.006 0.002c-0.105 0.049-0.228 0.078-0.358 0.080l-0.001 0c-0.005 0-0.011 0-0.017 0-0.124 0-0.242-0.025-0.35-0.069l0.006 0.002c-0.119-0.049-0.221-0.118-0.306-0.204l-0-0-3.246-3.263c-0.089-0.083-0.16-0.183-0.211-0.294l-0.002-0.006c-0.048-0.106-0.077-0.229-0.079-0.359l-0-0.001c-0-0.005-0-0.011-0-0.016 0-0.125 0.025-0.244 0.069-0.353l-0.002 0.006c0.049-0.12 0.117-0.222 0.203-0.308l-0 0c0.085-0.086 0.187-0.154 0.3-0.201l0.006-0.002c0.102-0.043 0.22-0.067 0.345-0.067 0.006 0 0.011 0 0.017 0l-0.001-0c0.13 0.002 0.253 0.032 0.364 0.082l-0.006-0.002c0.117 0.053 0.216 0.125 0.298 0.214l0.001 0.001 2.569 2.581 4.26-5.457c0.008-0.010 0.016-0.019 0.024-0.027l0-0h-0.001z"></path>
    </symbol>
    <symbol id="icon-telegram" viewBox="0 0 10 8">
     <path d="M9.6 0l-9.6 4.5 3.068 0.947 4.732-3.697-3.599 4.047 0.003 0.001-0.004-0.001v2.203l1.721-1.673 2.18 0.673 1.5-7z"></path>
    </symbol>
  </defs>
</svg>
